<svg width="111" height="99" viewBox="0 0 111 99" fill="none" xmlns="http://www.w3.org/2000/svg">
<rect x="0.818359" y="0.255859" width="109.363" height="98.0498" rx="20" fill="black"/>
<path d="M18.3133 52.8226V60.8018H14.7512V38.574H18.3133V47.9495C19.2822 46.5817 20.7926 45.8408 22.7019 45.8408C26.321 45.8408 28.7718 48.4055 28.7718 52.8226V60.8018H25.2096V52.8226C25.2096 50.6283 23.8418 49.3174 21.8755 49.3174C19.8807 49.3174 18.3133 50.6283 18.3133 52.8226ZM38.7324 46.1257H40.3853V49.6309H38.7324C36.3387 49.6309 34.7143 51.3122 34.7143 53.82V60.8018H31.1522V53.82C31.1522 48.377 34.1444 46.1257 38.7324 46.1257Z" fill="#0044FF"/>
<path d="M41.5574 52.8796C41.5574 48.4055 44.5496 45.8408 48.6532 45.8408C52.7283 45.8408 55.749 48.4055 55.749 52.8796V60.8018H52.1869V52.965C52.1869 50.5998 50.6765 49.3174 48.6532 49.3174C46.6299 49.3174 45.1196 50.5998 45.1196 52.965V60.8018H41.5574V52.8796Z" fill="white"/>
<path d="M65.328 61.0867C60.8824 61.0867 57.6338 57.952 57.6338 53.478C57.6338 49.0039 60.8824 45.8408 65.328 45.8408C69.802 45.8408 73.0222 49.0039 73.0222 53.478C73.0222 57.952 69.802 61.0867 65.328 61.0867ZM65.328 57.6386C67.7502 57.6386 69.4031 55.8718 69.4031 53.478C69.4031 51.0557 67.7502 49.3174 65.328 49.3174C62.9342 49.3174 61.2529 51.0557 61.2529 53.478C61.2529 55.8718 62.9342 57.6386 65.328 57.6386ZM80.344 57.2111L82.5383 48.605C82.9942 46.6672 84.1341 45.8978 85.6159 45.8978C87.1548 45.8978 88.2377 46.6387 88.6936 48.605L90.8879 57.2111C90.9449 57.3251 91.0019 57.4106 91.1159 57.4106C91.2299 57.4106 91.3154 57.3251 91.3439 57.2111L94.2506 46.1257H97.9267L94.3076 58.3795C93.6806 60.5168 92.5123 61.0297 91.1159 61.0297C89.748 61.0297 88.5797 60.3743 88.0952 58.3795L85.7869 49.7164C85.7584 49.5739 85.6729 49.5169 85.559 49.5169C85.445 49.5169 85.3595 49.5739 85.331 49.7164L83.0797 58.3795C82.5953 60.4313 81.4839 61.0297 80.116 61.0297C78.5487 61.0297 77.4088 60.4313 76.8673 58.3795L73.4192 46.1257H77.1523L79.9165 57.2111C79.945 57.3536 80.0305 57.4106 80.1445 57.4106C80.23 57.4106 80.3155 57.3536 80.344 57.2111Z" fill="white"/>
<circle cx="65.3678" cy="53.3659" r="2.19984" fill="#0044FF"/>
</svg>
