<svg width="402" height="173" viewBox="0 0 402 173" fill="none" xmlns="http://www.w3.org/2000/svg">
<path d="M28.5894 101.992V139.115H12.0168V35.7013H28.5894V79.3205C33.0971 72.9566 40.1239 69.5095 49.0069 69.5095C65.8447 69.5095 77.2466 81.4418 77.2466 101.992V139.115H60.674V101.992C60.674 91.7831 54.3101 85.6844 45.162 85.6844C35.8813 85.6844 28.5894 91.7831 28.5894 101.992ZM123.588 70.8353H131.278V87.1428H123.588C112.451 87.1428 104.894 94.9651 104.894 106.632V139.115H88.3213V106.632C88.3213 81.3092 102.242 70.8353 123.588 70.8353Z" fill="#0044FF"/>
<path d="M136.731 102.257C136.731 81.4418 150.652 69.5095 169.744 69.5095C188.703 69.5095 202.756 81.4418 202.756 102.257V139.115H186.184V102.655C186.184 91.6505 179.157 85.6844 169.744 85.6844C160.33 85.6844 153.304 91.6505 153.304 102.655V139.115H136.731V102.257Z" fill="white"/>
<path d="M247.322 140.44C226.639 140.44 211.525 125.856 211.525 105.041C211.525 84.226 226.639 69.5095 247.322 69.5095C268.137 69.5095 283.119 84.226 283.119 105.041C283.119 125.856 268.137 140.44 247.322 140.44ZM247.322 124.398C258.591 124.398 266.281 116.178 266.281 105.041C266.281 93.7718 258.591 85.6844 247.322 85.6844C236.185 85.6844 228.363 93.7718 228.363 105.041C228.363 116.178 236.185 124.398 247.322 124.398ZM317.183 122.409L327.392 82.3699C329.513 73.3543 334.816 69.7747 341.71 69.7747C348.87 69.7747 353.908 73.2218 356.029 82.3699L366.238 122.409C366.503 122.94 366.768 123.337 367.298 123.337C367.829 123.337 368.226 122.94 368.359 122.409L381.882 70.8353H398.985L382.147 127.845C379.231 137.789 373.795 140.175 367.298 140.175C360.935 140.175 355.499 137.126 353.245 127.845L342.506 87.5405C342.373 86.8776 341.975 86.6125 341.445 86.6125C340.915 86.6125 340.517 86.8776 340.384 87.5405L329.911 127.845C327.657 137.391 322.486 140.175 316.122 140.175C308.83 140.175 303.527 137.391 301.008 127.845L284.966 70.8353H302.334L315.194 122.409C315.327 123.072 315.724 123.337 316.255 123.337C316.652 123.337 317.05 123.072 317.183 122.409Z" fill="white"/>
</svg>
