<svg width="402" height="173" viewBox="0 0 402 173" fill="none" xmlns="http://www.w3.org/2000/svg">
<path d="M28.3946 101.992V139.115H11.822V35.7013H28.3946V79.3205C32.9024 72.9566 39.9292 69.5095 48.8121 69.5095C65.6499 69.5095 77.0519 81.4418 77.0519 101.992V139.115H60.4792V101.992C60.4792 91.7831 54.1154 85.6844 44.9673 85.6844C35.6866 85.6844 28.3946 91.7831 28.3946 101.992ZM123.393 70.8353H131.083V87.1428H123.393C112.256 87.1428 104.699 94.9651 104.699 106.632V139.115H88.1265V106.632C88.1265 81.3092 102.048 70.8353 123.393 70.8353Z" fill="#0044FF"/>
<path d="M136.536 102.257C136.536 81.4418 150.457 69.5095 169.549 69.5095C188.508 69.5095 202.562 81.4418 202.562 102.257V139.115H185.989V102.655C185.989 91.6505 178.962 85.6844 169.549 85.6844C160.136 85.6844 153.109 91.6505 153.109 102.655V139.115H136.536V102.257Z" fill="#403737"/>
<path d="M247.127 140.44C226.444 140.44 211.33 125.856 211.33 105.041C211.33 84.226 226.444 69.5095 247.127 69.5095C267.942 69.5095 282.924 84.226 282.924 105.041C282.924 125.856 267.942 140.44 247.127 140.44ZM247.127 124.398C258.396 124.398 266.086 116.178 266.086 105.041C266.086 93.7718 258.396 85.6844 247.127 85.6844C235.99 85.6844 228.168 93.7718 228.168 105.041C228.168 116.178 235.99 124.398 247.127 124.398ZM316.988 122.409L327.197 82.3699C329.318 73.3543 334.621 69.7747 341.515 69.7747C348.675 69.7747 353.713 73.2218 355.834 82.3699L366.043 122.409C366.308 122.94 366.573 123.337 367.104 123.337C367.634 123.337 368.032 122.94 368.164 122.409L381.688 70.8353H398.79L381.953 127.845C379.036 137.789 373.6 140.175 367.104 140.175C360.74 140.175 355.304 137.126 353.05 127.845L342.311 87.5405C342.178 86.8776 341.781 86.6125 341.25 86.6125C340.72 86.6125 340.322 86.8776 340.19 87.5405L329.716 127.845C327.462 137.391 322.291 140.175 315.927 140.175C308.635 140.175 303.332 137.391 300.813 127.845L284.771 70.8353H302.139L314.999 122.409C315.132 123.072 315.53 123.337 316.06 123.337C316.458 123.337 316.855 123.072 316.988 122.409Z" fill="#403737"/>
<circle cx="247.312" cy="105.092" r="10.2346" fill="#0044FF"/>
</svg>
