<svg width="339" height="232" viewBox="0 0 339 232" fill="none" xmlns="http://www.w3.org/2000/svg">
<g style="mix-blend-mode:plus-lighter">
<path fill-rule="evenodd" clip-rule="evenodd" d="M287.618 59.5293L339 59.5293V110.912H333.495C308.158 110.912 287.618 90.372 287.618 65.0346V59.5293Z" fill="white" fill-opacity="0.5"/>
<path fill-rule="evenodd" clip-rule="evenodd" d="M282.606 59.5293L231.223 59.5293V110.912H236.728C262.066 110.912 282.606 90.372 282.606 65.0346V59.5293Z" fill="white" fill-opacity="0.5"/>
<path fill-rule="evenodd" clip-rule="evenodd" d="M223.704 110.912L172.947 110.912V59.5293H178.386C203.414 59.5293 223.704 80.0694 223.704 105.407V110.912Z" fill="white" fill-opacity="0.5"/>
<path fill-rule="evenodd" clip-rule="evenodd" d="M115.298 110.912L166.681 110.912V59.5293H161.175C135.838 59.5293 115.298 80.0694 115.298 105.407V110.912Z" fill="white" fill-opacity="0.5"/>
<path fill-rule="evenodd" clip-rule="evenodd" d="M115.298 0L166.681 0V51.3828H161.175C135.838 51.3828 115.298 30.8427 115.298 5.5053V0Z" fill="white" fill-opacity="0.5"/>
<path fill-rule="evenodd" clip-rule="evenodd" d="M223.076 51.3828L171.693 51.3828V2.92041e-05H177.199C202.536 2.92041e-05 223.076 20.5401 223.076 45.8775V51.3828Z" fill="white" fill-opacity="0.5"/>
<path fill-rule="evenodd" clip-rule="evenodd" d="M281.352 51.3828L230.596 51.3828V2.92041e-05H236.034C261.062 2.92041e-05 281.352 20.5401 281.352 45.8775V51.3828Z" fill="white" fill-opacity="0.5"/>
<path fill-rule="evenodd" clip-rule="evenodd" d="M287.618 51.3828L339 51.3828V2.92041e-05H333.495C308.158 2.92041e-05 287.618 20.5401 287.618 45.8775V51.3828Z" fill="white" fill-opacity="0.5"/>
<path fill-rule="evenodd" clip-rule="evenodd" d="M172.32 180.467H223.703V231.85H218.197C192.86 231.85 172.32 211.31 172.32 185.972V180.467Z" fill="white" fill-opacity="0.5"/>
<path fill-rule="evenodd" clip-rule="evenodd" d="M167.308 180.467H115.925V231.85H121.43C146.768 231.85 167.308 211.31 167.308 185.972V180.467Z" fill="white" fill-opacity="0.5"/>
<path fill-rule="evenodd" clip-rule="evenodd" d="M108.406 231.85H57.6496L57.6496 180.467H63.0878C88.1162 180.467 108.406 201.007 108.406 226.344V231.85Z" fill="white" fill-opacity="0.5"/>
<path fill-rule="evenodd" clip-rule="evenodd" d="M0 231.85H51.3828L51.3828 180.467H45.8775C20.54 180.467 0 201.007 0 226.344L0 231.85Z" fill="white" fill-opacity="0.5"/>
<path fill-rule="evenodd" clip-rule="evenodd" d="M0 120.938L51.3828 120.937L51.3828 172.32H45.8775C20.5401 172.32 0 151.78 0 126.443L0 120.938Z" fill="white" fill-opacity="0.5"/>
<path fill-rule="evenodd" clip-rule="evenodd" d="M107.779 172.32H56.396L56.396 120.938H61.9013C87.2388 120.938 107.779 141.478 107.779 166.815V172.32Z" fill="white" fill-opacity="0.5"/>
<path fill-rule="evenodd" clip-rule="evenodd" d="M337.748 231.85H286.365V180.467H291.871C317.208 180.467 337.748 201.007 337.748 226.344V231.85Z" fill="white" fill-opacity="0.5"/>
<path fill-rule="evenodd" clip-rule="evenodd" d="M229.343 231.85H280.099V180.467H274.661C249.633 180.467 229.343 201.007 229.343 226.344V231.85Z" fill="white" fill-opacity="0.5"/>
<path fill-rule="evenodd" clip-rule="evenodd" d="M229.343 120.938L280.099 120.937V172.32H274.661C249.633 172.32 229.343 151.78 229.343 126.443V120.938Z" fill="white" fill-opacity="0.5"/>
<path fill-rule="evenodd" clip-rule="evenodd" d="M336.495 172.32H285.738V120.938H291.177C316.205 120.938 336.495 141.478 336.495 166.815V172.32Z" fill="white" fill-opacity="0.5"/>
<path fill-rule="evenodd" clip-rule="evenodd" d="M166.053 172.32H115.297V120.938H120.735C145.764 120.938 166.053 141.478 166.053 166.815V172.32Z" fill="white" fill-opacity="0.5"/>
<path fill-rule="evenodd" clip-rule="evenodd" d="M172.32 172.32H223.703V120.938H218.197C192.86 120.938 172.32 141.478 172.32 166.815V172.32Z" fill="white" fill-opacity="0.5"/>
</g>
</svg>
